<?xml version="1.0" encoding="UTF-8"?>
<svg xmlns="http://www.w3.org/2000/svg" xmlns:xlink="http://www.w3.org/1999/xlink" width="20px" height="20px" viewBox="0 0 20 20" version="1.1">
<g id="surface1">
<path style=" stroke:none;fill-rule:nonzero;fill:rgb(0%,0%,0%);fill-opacity:1;" d="M 1.035156 11.097656 L 10 3.328125 L 18.964844 11.097656 C 19.226562 11.320312 19.617188 11.289062 19.84375 11.03125 C 20.066406 10.773438 20.042969 10.378906 19.785156 10.152344 L 10.410156 2.027344 C 10.175781 1.824219 9.828125 1.824219 9.589844 2.027344 L 6.25 4.921875 L 6.25 3.75 C 6.25 3.058594 5.691406 2.5 5 2.5 C 4.308594 2.5 3.75 3.058594 3.75 3.75 L 3.75 7.089844 L 0.214844 10.152344 C -0.046875 10.378906 -0.0742188 10.773438 0.152344 11.035156 C 0.378906 11.296875 0.773438 11.324219 1.035156 11.097656 Z M 7.5 13.75 L 12.5 13.75 L 12.5 20 L 16.25 20 C 16.941406 20 17.5 19.441406 17.5 18.75 L 17.5 12.625 C 17.5 12.25 17.332031 11.894531 17.042969 11.65625 L 10.792969 6.535156 C 10.332031 6.15625 9.667969 6.15625 9.207031 6.535156 L 2.957031 11.65625 C 2.667969 11.894531 2.5 12.25 2.5 12.625 L 2.5 18.75 C 2.5 19.441406 3.058594 20 3.75 20 L 7.5 20 Z M 7.5 13.75 "/>
</g>
</svg>
